<?xml version="1.0" standalone="no"?>
<!DOCTYPE svg PUBLIC "-//W3C//DTD SVG 20010904//EN"
 "http://www.w3.org/TR/2001/REC-SVG-20010904/DTD/svg10.dtd">
<svg version="1.0" xmlns="http://www.w3.org/2000/svg"
 width="600.000000pt" height="600.000000pt" viewBox="0 0 600.000000 600.000000"
 preserveAspectRatio="xMidYMid meet">
<metadata>
Created by potrace 1.11, written by Peter Selinger 2001-2013
</metadata>
<g transform="translate(0.000000,600.000000) scale(0.100000,-0.100000)"
fill="#000000" stroke="none">
<path d="M850 5500 c-191 -49 -342 -171 -425 -345 -49 -100 -64 -178 -60 -300
6 -165 65 -304 179 -417 74 -74 78 -78 147 -116 119 -67 295 -97 421 -73 400
74 633 496 481 871 -118 291 -443 458 -743 380z"/>
<path d="M2861 5504 c-201 -42 -381 -199 -460 -402 -30 -76 -36 -113 -35 -232
1 -176 56 -310 179 -435 122 -125 259 -185 435 -191 188 -6 330 48 463 175
301 286 249 780 -104 1003 -140 89 -309 118 -478 82z"/>
<path d="M4918 5515 c-2 -2 -19 -5 -38 -8 -174 -24 -363 -167 -447 -337 -53
-109 -73 -199 -68 -309 2 -47 6 -99 9 -114 49 -223 216 -405 441 -478 94 -31
282 -34 365 -5 282 96 459 333 460 614 1 355 -301 651 -652 641 -37 -1 -69 -3
-70 -4z"/>
<path d="M1357 3625 c-47 -16 -58 -26 -224 -192 -72 -73 -134 -133 -136 -133
-2 0 -79 74 -170 164 -127 126 -170 163 -185 159 -11 -2 -79 -64 -151 -137
-105 -106 -130 -137 -124 -152 3 -10 78 -90 165 -177 87 -87 158 -160 158
-163 0 -2 -48 -51 -106 -108 l-105 -105 -60 -180 c-62 -189 -66 -210 -47 -229
19 -19 40 -15 226 44 l177 56 111 110 111 109 165 -165 c130 -129 170 -164
186 -160 11 3 79 66 152 139 124 126 131 135 119 157 -7 12 -82 92 -166 177
l-154 155 144 145 c79 80 154 161 166 179 53 77 34 202 -40 266 -61 52 -140
67 -212 41z"/>
<path d="M2918 3635 c-2 -2 -19 -5 -38 -8 -141 -20 -304 -124 -395 -252 -90
-125 -125 -245 -120 -404 5 -163 68 -306 185 -422 247 -245 633 -251 887 -14
122 113 190 260 200 431 22 366 -278 680 -642 673 -41 -1 -75 -3 -77 -4z"/>
<path d="M4848 3620 c-178 -44 -341 -174 -417 -332 -54 -113 -71 -190 -67
-313 11 -328 265 -589 597 -612 370 -25 680 267 679 641 -1 412 -391 715 -792
616z"/>
<path d="M861 1744 c-105 -22 -223 -87 -305 -168 -123 -121 -185 -259 -191
-426 -8 -187 53 -348 180 -474 121 -122 254 -182 421 -193 268 -17 529 148
627 397 189 479 -226 969 -732 864z"/>
<path d="M2861 1745 c-177 -39 -352 -176 -430 -337 -53 -111 -69 -187 -66
-311 7 -271 178 -496 445 -588 88 -30 287 -33 370 -6 268 89 442 309 457 577
6 109 -5 182 -43 277 -68 172 -204 302 -384 368 -91 33 -246 42 -349 20z"/>
<path d="M4861 1744 c-213 -44 -400 -217 -472 -439 -33 -100 -33 -270 0 -370
37 -113 80 -184 162 -265 252 -252 646 -252 900 0 308 307 226 823 -163 1020
-131 66 -277 85 -427 54z"/>
</g>
</svg>
